<svg width="379" height="81" viewBox="0 0 379 81" fill="none" xmlns="http://www.w3.org/2000/svg">
<path d="M332.137 28.2963V15.8125H378.428V28.2963H362.562V64.267H348.046V28.2963H332.122H332.137Z" fill="#FF5010"/>
<path d="M130.015 28.2963V15.8125H176.306V28.2963H160.44V64.267H145.924V28.2963H130H130.015Z" fill="#FF5010"/>
<path d="M179.238 32.5209C179.514 27.4838 181.59 23.3032 185.466 19.979C189.327 16.6548 194.495 15 200.954 15C207.414 15 212.175 16.6548 216.152 19.979C220.115 23.3032 222.104 27.658 222.104 33.0725V64.2529H208.822V57.532C208.009 59.782 206.369 61.5965 203.901 62.961C201.433 64.3255 198.544 65.0078 195.235 65.0078C190.561 65.0078 186.743 63.6287 183.767 60.8707C180.806 58.1126 179.325 54.6578 179.325 50.4917C179.325 45.7595 180.937 42.0434 184.174 39.3144C187.411 36.5854 191.707 35.2354 197.064 35.2354H205.207C206.369 35.2354 207.254 34.9015 207.878 34.2483C208.502 33.5951 208.822 32.7241 208.822 31.6644C208.822 29.6031 208.053 27.9338 206.528 26.6854C204.99 25.437 202.885 24.8128 200.199 24.8128C197.514 24.8128 195.249 25.5532 193.682 27.0483C192.114 28.529 191.301 30.358 191.199 32.5209H179.224H179.238ZM192.157 49.9401C192.157 51.5369 192.767 52.8288 193.957 53.8304C195.162 54.832 196.701 55.3401 198.574 55.3401C201.724 55.3401 204.22 54.2949 206.064 52.2191C207.907 50.1433 208.822 47.5159 208.822 44.3514V43.6982H199.082C197.049 43.6982 195.395 44.2643 194.103 45.4111C192.811 46.5579 192.157 48.0675 192.157 49.9401Z" fill="#FF5010"/>
<path d="M231.219 64.2675V15.8129H244.69V22.5774C246.04 20.2113 248.014 18.3532 250.612 17.0177C253.211 15.6823 256.157 15 259.438 15C264.852 15 269.222 16.771 272.531 20.3129C275.856 23.8548 277.51 28.4419 277.51 34.0741V64.2675H264.04V37.0934C264.04 34.1612 263.183 31.7515 261.456 29.8644C259.728 27.9773 257.478 27.0338 254.691 27.0338C251.904 27.0338 249.378 28.0499 247.506 30.0822C245.633 32.1144 244.69 34.6838 244.69 37.8047V64.2675H231.219Z" fill="#FF5010"/>
<path d="M285.366 32.5209C285.642 27.4838 287.718 23.3032 291.593 19.979C295.455 16.6548 300.622 15 307.082 15C313.542 15 318.303 16.6548 322.28 19.979C326.243 23.3032 328.232 27.658 328.232 33.0725V64.2529H314.95V57.532C314.137 59.782 312.497 61.5965 310.029 62.961C307.561 64.3255 304.672 65.0078 301.363 65.0078C296.689 65.0078 292.871 63.6287 289.895 60.8707C286.934 58.1126 285.453 54.6578 285.453 50.4917C285.453 45.7595 287.064 42.0434 290.302 39.3144C293.539 36.5854 297.835 35.2354 303.192 35.2354H311.335C312.497 35.2354 313.382 34.9015 314.006 34.2483C314.63 33.5951 314.95 32.7241 314.95 31.6644C314.95 29.6031 314.18 27.9338 312.656 26.6854C311.118 25.437 309.013 24.8128 306.327 24.8128C303.642 24.8128 301.377 25.5532 299.81 27.0483C298.242 28.529 297.429 30.358 297.327 32.5209H285.352H285.366ZM298.285 49.9401C298.285 51.5369 298.895 52.8288 300.085 53.8304C301.29 54.832 302.829 55.3401 304.701 55.3401C307.851 55.3401 310.348 54.2949 312.192 52.2191C314.035 50.1433 314.95 47.5159 314.95 44.3514V43.6982H305.209C303.177 43.6982 301.522 44.2643 300.231 45.4111C298.939 46.5579 298.285 48.0675 298.285 49.9401Z" fill="#FF5010"/>
<path d="M97.2285 41.5885L48.6142 19.7128L0 41.5885V0H97.2285V41.5885Z" fill="#FF5010"/>
<path d="M48.6142 35.5205L18.8418 80.9993H78.3866L48.6142 35.5205Z" fill="#FF5010"/>
</svg>
